<?xml version="1.0" encoding="UTF-8"?>
<svg xmlns="http://www.w3.org/2000/svg" xmlns:xlink="http://www.w3.org/1999/xlink" width="52px" height="35px" viewBox="0 0 52 35" version="1.1">
<g id="surface1">
<path style=" stroke:none;fill-rule:nonzero;fill:rgb(84.313725%,85.490196%,86.666667%);fill-opacity:1;" d="M 25.273438 17.234375 C 25.273438 20.160156 24.964844 22.699219 24.347656 24.847656 C 23.730469 26.992188 22.875 28.769531 21.777344 30.183594 C 20.691406 31.59375 19.398438 32.644531 17.894531 33.332031 C 16.40625 34.023438 14.789062 34.367188 13.042969 34.367188 C 11.296875 34.367188 9.679688 34.023438 8.191406 33.332031 C 6.71875 32.644531 5.4375 31.59375 4.355469 30.183594 C 3.273438 28.769531 2.421875 26.992188 1.804688 24.847656 C 1.203125 22.699219 0.902344 20.160156 0.902344 17.234375 C 0.902344 14.304688 1.203125 11.765625 1.804688 9.621094 C 2.421875 7.472656 3.273438 5.695312 4.355469 4.285156 C 5.4375 2.875 6.71875 1.832031 8.191406 1.15625 C 9.679688 0.464844 11.296875 0.121094 13.042969 0.121094 C 14.789062 0.121094 16.40625 0.464844 17.894531 1.15625 C 19.398438 1.832031 20.691406 2.875 21.777344 4.285156 C 22.875 5.695312 23.730469 7.472656 24.347656 9.621094 C 24.964844 11.765625 25.273438 14.304688 25.273438 17.234375 Z M 18.054688 17.234375 C 18.054688 14.917969 17.910156 13.023438 17.625 11.550781 C 17.339844 10.066406 16.953125 8.898438 16.472656 8.054688 C 16.007812 7.210938 15.472656 6.636719 14.871094 6.332031 C 14.269531 6.007812 13.660156 5.847656 13.042969 5.847656 C 12.425781 5.847656 11.816406 6.007812 11.214844 6.332031 C 10.628906 6.636719 10.101562 7.210938 9.636719 8.054688 C 9.183594 8.898438 8.816406 10.066406 8.53125 11.550781 C 8.257812 13.023438 8.125 14.917969 8.125 17.234375 C 8.125 19.5625 8.257812 21.464844 8.53125 22.9375 C 8.816406 24.410156 9.183594 25.574219 9.636719 26.433594 C 10.101562 27.277344 10.628906 27.859375 11.214844 28.179688 C 11.816406 28.488281 12.425781 28.640625 13.042969 28.640625 C 13.660156 28.640625 14.269531 28.488281 14.871094 28.179688 C 15.472656 27.859375 16.007812 27.277344 16.472656 26.433594 C 16.953125 25.574219 17.339844 24.410156 17.625 22.9375 C 17.910156 21.464844 18.054688 19.5625 18.054688 17.234375 Z M 40.398438 0.121094 C 42.023438 0.121094 43.464844 0.359375 44.730469 0.835938 C 45.992188 1.292969 47.0625 1.921875 47.933594 2.71875 C 48.804688 3.515625 49.46875 4.445312 49.917969 5.503906 C 50.371094 6.546875 50.597656 7.648438 50.597656 8.816406 C 50.597656 9.871094 50.492188 10.808594 50.28125 11.621094 C 50.070312 12.417969 49.753906 13.117188 49.332031 13.714844 C 48.925781 14.296875 48.414062 14.796875 47.796875 15.210938 C 47.195312 15.621094 46.503906 15.96875 45.722656 16.242188 C 49.363281 17.53125 51.183594 20.054688 51.183594 23.8125 C 51.183594 25.589844 50.867188 27.136719 50.234375 28.457031 C 49.605469 29.777344 48.753906 30.871094 47.6875 31.746094 C 46.632812 32.621094 45.40625 33.28125 44.007812 33.722656 C 42.609375 34.152344 41.148438 34.367188 39.628906 34.367188 C 38.066406 34.367188 36.671875 34.199219 35.453125 33.863281 C 34.234375 33.507812 33.152344 32.972656 32.207031 32.253906 C 31.257812 31.515625 30.421875 30.582031 29.699219 29.445312 C 28.992188 28.3125 28.375 26.960938 27.851562 25.398438 L 30.964844 24.109375 C 31.234375 23.988281 31.5 23.902344 31.753906 23.855469 C 32.023438 23.8125 32.289062 23.789062 32.542969 23.789062 C 33.023438 23.789062 33.453125 23.886719 33.828125 24.085938 C 34.222656 24.269531 34.515625 24.546875 34.710938 24.914062 C 35.386719 26.1875 36.101562 27.117188 36.855469 27.699219 C 37.621094 28.265625 38.515625 28.550781 39.539062 28.550781 C 40.320312 28.550781 41 28.417969 41.570312 28.15625 C 42.15625 27.882812 42.636719 27.535156 43.015625 27.121094 C 43.40625 26.695312 43.699219 26.210938 43.894531 25.675781 C 44.089844 25.136719 44.1875 24.59375 44.1875 24.039062 C 44.1875 23.320312 44.136719 22.675781 44.03125 22.109375 C 43.941406 21.527344 43.667969 21.027344 43.21875 20.613281 C 42.765625 20.199219 42.082031 19.886719 41.164062 19.671875 C 40.261719 19.441406 38.996094 19.324219 37.371094 19.324219 L 37.371094 14.402344 C 38.742188 14.402344 39.847656 14.296875 40.691406 14.082031 C 41.53125 13.867188 42.179688 13.574219 42.628906 13.207031 C 43.097656 12.824219 43.40625 12.363281 43.554688 11.828125 C 43.707031 11.292969 43.78125 10.699219 43.78125 10.058594 C 43.78125 8.738281 43.464844 7.726562 42.832031 7.019531 C 42.21875 6.300781 41.269531 5.941406 39.992188 5.941406 C 39.464844 5.941406 38.984375 6.015625 38.546875 6.171875 C 38.109375 6.324219 37.71875 6.53125 37.371094 6.789062 C 37.027344 7.050781 36.726562 7.359375 36.46875 7.710938 C 36.230469 8.0625 36.035156 8.445312 35.882812 8.859375 C 35.644531 9.550781 35.335938 10.050781 34.957031 10.355469 C 34.597656 10.664062 34.101562 10.816406 33.46875 10.816406 C 33.320312 10.816406 33.152344 10.808594 32.972656 10.792969 C 32.808594 10.777344 32.632812 10.753906 32.453125 10.722656 L 28.753906 10.058594 C 28.992188 8.386719 29.453125 6.929688 30.128906 5.6875 C 30.820312 4.445312 31.671875 3.410156 32.679688 2.582031 C 33.703125 1.753906 34.867188 1.140625 36.175781 0.742188 C 37.484375 0.328125 38.890625 0.121094 40.398438 0.121094 Z M 40.398438 0.121094 "/>
</g>
</svg>
