<svg width="55" height="37" viewBox="0 0 55 37" fill="none" xmlns="http://www.w3.org/2000/svg">
<path d="M26.88 18.504C26.88 21.56 26.552 24.208 25.896 26.448C25.24 28.688 24.328 30.544 23.16 32.016C22.008 33.488 20.632 34.584 19.032 35.304C17.448 36.024 15.728 36.384 13.872 36.384C12.016 36.384 10.296 36.024 8.712 35.304C7.144 34.584 5.784 33.488 4.632 32.016C3.48 30.544 2.576 28.688 1.92 26.448C1.28 24.208 0.96 21.56 0.96 18.504C0.96 15.448 1.28 12.8 1.92 10.56C2.576 8.32 3.48 6.464 4.632 4.992C5.784 3.52 7.144 2.432 8.712 1.728C10.296 1.008 12.016 0.647999 13.872 0.647999C15.728 0.647999 17.448 1.008 19.032 1.728C20.632 2.432 22.008 3.52 23.16 4.992C24.328 6.464 25.24 8.32 25.896 10.56C26.552 12.8 26.88 15.448 26.88 18.504ZM19.2 18.504C19.2 16.088 19.048 14.112 18.744 12.576C18.44 11.024 18.032 9.808 17.52 8.928C17.024 8.048 16.456 7.448 15.816 7.128C15.176 6.792 14.528 6.624 13.872 6.624C13.216 6.624 12.568 6.792 11.928 7.128C11.304 7.448 10.744 8.048 10.248 8.928C9.768 9.808 9.376 11.024 9.072 12.576C8.784 14.112 8.64 16.088 8.64 18.504C8.64 20.936 8.784 22.92 9.072 24.456C9.376 25.992 9.768 27.208 10.248 28.104C10.744 28.984 11.304 29.592 11.928 29.928C12.568 30.248 13.216 30.408 13.872 30.408C14.528 30.408 15.176 30.248 15.816 29.928C16.456 29.592 17.024 28.984 17.52 28.104C18.032 27.208 18.44 25.992 18.744 24.456C19.048 22.92 19.2 20.936 19.2 18.504ZM52.7958 4.104C52.7958 4.616 52.7158 5.08 52.5558 5.496C52.3958 5.912 52.1398 6.28 51.7878 6.6C51.4518 6.904 51.0038 7.144 50.4438 7.32C49.8838 7.48 49.2118 7.56 48.4278 7.56H40.0758L39.0918 13.344C39.7478 13.232 40.3798 13.152 40.9878 13.104C41.5958 13.04 42.1878 13.008 42.7638 13.008C44.6038 13.008 46.2278 13.288 47.6358 13.848C49.0438 14.408 50.2278 15.176 51.1878 16.152C52.1478 17.112 52.8678 18.248 53.3478 19.56C53.8438 20.856 54.0918 22.248 54.0918 23.736C54.0918 25.608 53.7558 27.32 53.0837 28.872C52.4278 30.408 51.5078 31.736 50.3238 32.856C49.1398 33.976 47.7238 34.848 46.0758 35.472C44.4438 36.08 42.6518 36.384 40.6998 36.384C39.5638 36.384 38.4758 36.264 37.4358 36.024C36.4118 35.784 35.4438 35.464 34.5318 35.064C33.6358 34.648 32.8038 34.176 32.0358 33.648C31.2678 33.104 30.5718 32.528 29.9478 31.92L32.2518 28.848C32.4918 28.528 32.7718 28.288 33.0918 28.128C33.4118 27.952 33.7558 27.864 34.1238 27.864C34.6038 27.864 35.0518 28 35.4678 28.272C35.8998 28.528 36.3638 28.816 36.8598 29.136C37.3718 29.44 37.9638 29.72 38.6358 29.976C39.3078 30.232 40.1398 30.36 41.1318 30.36C42.1238 30.36 42.9718 30.2 43.6758 29.88C44.3798 29.544 44.9478 29.096 45.3798 28.536C45.8278 27.96 46.1478 27.296 46.3398 26.544C46.5478 25.776 46.6518 24.96 46.6518 24.096C46.6518 22.4 46.1718 21.112 45.2118 20.232C44.2518 19.336 42.8918 18.888 41.1318 18.888C39.5638 18.888 38.0278 19.184 36.5238 19.776L31.9158 18.528L34.8918 1.032H52.7958V4.104Z" fill="#FF3F3A"/>
</svg>
