<svg width="53" height="36" viewBox="0 0 53 36" fill="none" xmlns="http://www.w3.org/2000/svg">
<path d="M3.048 29.624H9.768V11.984C9.768 11.12 9.792 10.216 9.84 9.272L5.88 12.56C5.624 12.768 5.368 12.92 5.112 13.016C4.856 13.096 4.608 13.136 4.368 13.136C3.952 13.136 3.576 13.048 3.24 12.872C2.92 12.68 2.68 12.48 2.52 12.272L0.168 9.152L11.064 0.00799847H17.208V29.624H22.968V35H3.048V29.624ZM42.3558 12.848C43.6198 12.848 44.8678 13.056 46.0998 13.472C47.3318 13.888 48.4358 14.528 49.4118 15.392C50.3878 16.256 51.1718 17.352 51.7638 18.68C52.3718 19.992 52.6758 21.544 52.6758 23.336C52.6758 24.968 52.3718 26.52 51.7638 27.992C51.1558 29.448 50.2918 30.728 49.1718 31.832C48.0678 32.92 46.7318 33.784 45.1638 34.424C43.5958 35.064 41.8598 35.384 39.9557 35.384C38.0038 35.384 36.2518 35.08 34.6998 34.472C33.1478 33.848 31.8278 32.984 30.7398 31.88C29.6678 30.776 28.8438 29.456 28.2678 27.92C27.7078 26.384 27.4277 24.696 27.4277 22.856C27.4277 21.112 27.7638 19.376 28.4358 17.648C29.1078 15.92 30.0998 14.16 31.4118 12.368L39.2838 1.736C39.6358 1.256 40.1638 0.855999 40.8678 0.535997C41.5718 0.199999 42.3718 0.0319996 43.2678 0.0319996H49.8918L39.5238 12.416C39.3638 12.592 39.2038 12.776 39.0438 12.968C38.8998 13.144 38.7558 13.32 38.6118 13.496C39.1718 13.288 39.7558 13.128 40.3638 13.016C40.9878 12.904 41.6518 12.848 42.3558 12.848ZM34.5798 23.864C34.5798 24.728 34.6838 25.504 34.8918 26.192C35.0998 26.88 35.4198 27.472 35.8518 27.968C36.2838 28.464 36.8278 28.848 37.4838 29.12C38.1398 29.376 38.9158 29.504 39.8118 29.504C40.5798 29.504 41.2918 29.36 41.9478 29.072C42.6198 28.784 43.1958 28.392 43.6758 27.896C44.1558 27.384 44.5318 26.792 44.8038 26.12C45.0918 25.432 45.2358 24.688 45.2358 23.888C45.2358 22.992 45.0998 22.192 44.8278 21.488C44.5718 20.784 44.2038 20.192 43.7238 19.712C43.2438 19.232 42.6598 18.864 41.9718 18.608C41.2998 18.352 40.5478 18.224 39.7158 18.224C38.9638 18.224 38.2758 18.36 37.6518 18.632C37.0278 18.888 36.4838 19.264 36.0198 19.76C35.5718 20.256 35.2198 20.848 34.9638 21.536C34.7078 22.224 34.5798 23 34.5798 23.864Z" fill="#FF3F3A"/>
</svg>
