<svg width="55" height="36" viewBox="0 0 55 36" fill="none" xmlns="http://www.w3.org/2000/svg">
<path d="M13.448 0.647999C15.176 0.647999 16.728 0.903998 18.104 1.416C19.496 1.912 20.68 2.608 21.656 3.504C22.632 4.4 23.376 5.472 23.888 6.72C24.416 7.952 24.68 9.312 24.68 10.8C24.68 12.08 24.496 13.264 24.128 14.352C23.776 15.44 23.288 16.48 22.664 17.472C22.04 18.448 21.312 19.4 20.48 20.328C19.664 21.24 18.792 22.168 17.864 23.112L11.024 30.12C11.904 29.864 12.768 29.664 13.616 29.52C14.48 29.36 15.288 29.28 16.04 29.28H22.568C23.368 29.28 24 29.504 24.464 29.952C24.928 30.384 25.16 30.96 25.16 31.68V36H0.584V33.6C0.584 33.136 0.68 32.64 0.872 32.112C1.064 31.584 1.4 31.104 1.88 30.672L11.96 20.52C12.824 19.656 13.576 18.832 14.216 18.048C14.856 17.264 15.384 16.496 15.8 15.744C16.216 14.976 16.528 14.216 16.736 13.464C16.944 12.696 17.048 11.888 17.048 11.04C17.048 9.648 16.712 8.584 16.04 7.848C15.384 7.096 14.376 6.72 13.016 6.72C12.456 6.72 11.944 6.8 11.48 6.96C11.016 7.12 10.6 7.336 10.232 7.608C9.864 7.88 9.544 8.2 9.272 8.568C9.016 8.936 8.808 9.336 8.648 9.768C8.392 10.488 8.064 11.008 7.664 11.328C7.28 11.648 6.752 11.808 6.08 11.808C5.92 11.808 5.744 11.8 5.552 11.784C5.376 11.768 5.192 11.744 5 11.712L1.064 11.016C1.32 9.272 1.808 7.752 2.528 6.456C3.264 5.16 4.168 4.08 5.24 3.216C6.328 2.352 7.568 1.712 8.96 1.296C10.352 0.863998 11.848 0.647999 13.448 0.647999ZM51.2678 22.416H54.8678V26.592C54.8678 26.96 54.7398 27.28 54.4838 27.552C54.2438 27.824 53.8918 27.96 53.4278 27.96H51.2678V36H44.7878V27.96H30.7238C30.2598 27.96 29.8358 27.816 29.4518 27.528C29.0838 27.24 28.8518 26.88 28.7558 26.448L27.9878 22.776L44.1638 1.032H51.2678V22.416ZM44.7878 13.296C44.7878 12.736 44.8038 12.136 44.8358 11.496C44.8838 10.84 44.9478 10.168 45.0278 9.48L35.7878 22.416H44.7878V13.296Z" fill="#FF3F3A"/>
</svg>
