<svg width="92" height="26" viewBox="0 0 92 26" fill="none" xmlns="http://www.w3.org/2000/svg">
<g clip-path="url(#clip0_2299_4085)">
<g clip-path="url(#clip1_2299_4085)">
<path fill-rule="evenodd" clip-rule="evenodd" d="M10.7119 11.941C11.4102 12.4747 11.4102 13.526 10.7119 14.0597L7.65865 16.3933C6.78126 17.0639 5.51566 16.4383 5.51566 15.334V10.6667C5.51566 9.56241 6.78125 8.93678 7.65865 9.60738L10.7119 11.941ZM9.90228 13.0004L6.84899 10.6667L6.84899 15.334L9.90228 13.0004Z" fill="#FF3F3A"/>
<path fill-rule="evenodd" clip-rule="evenodd" d="M8.00008 7.00033C4.68637 7.00033 2.00008 9.68662 2.00008 13.0003C2.00008 16.314 4.68637 19.0003 8.00008 19.0003C11.3138 19.0003 14.0001 16.314 14.0001 13.0003C14.0001 9.68662 11.3138 7.00033 8.00008 7.00033ZM0.666748 13.0003C0.666748 8.95024 3.94999 5.66699 8.00008 5.66699C12.0502 5.66699 15.3334 8.95024 15.3334 13.0003C15.3334 17.0504 12.0502 20.3337 8.00008 20.3337C3.94999 20.3337 0.666748 17.0504 0.666748 13.0003Z" fill="#FF3F3A"/>
</g>
<path d="M29.696 14.64V10.856C29.696 10.4987 29.72 10.104 29.768 9.672L26.176 14.64H29.696ZM32.872 14.64V15.784C32.872 15.8907 32.8373 15.984 32.768 16.064C32.6987 16.1387 32.6 16.176 32.472 16.176H31.416V19H29.696V16.176H24.816C24.6827 16.176 24.5653 16.136 24.464 16.056C24.3627 15.9707 24.2987 15.8667 24.272 15.744L24.064 14.744L29.544 7.424H31.416V14.64H32.872ZM44.0279 12.528C43.9692 12.6027 43.9105 12.6613 43.8519 12.704C43.7985 12.7467 43.7185 12.768 43.6119 12.768C43.5105 12.768 43.4119 12.7387 43.3159 12.68C43.2199 12.616 43.1052 12.5467 42.9719 12.472C42.8385 12.392 42.6785 12.3227 42.4919 12.264C42.3105 12.2 42.0839 12.168 41.8119 12.168C41.4652 12.168 41.1612 12.232 40.8999 12.36C40.6385 12.4827 40.4199 12.6613 40.2439 12.896C40.0732 13.1307 39.9452 13.416 39.8599 13.752C39.7745 14.0827 39.7319 14.4587 39.7319 14.88C39.7319 15.3173 39.7772 15.7067 39.8679 16.048C39.9639 16.3893 40.0999 16.6773 40.2759 16.912C40.4519 17.1413 40.6652 17.3173 40.9159 17.44C41.1665 17.5573 41.4492 17.616 41.7639 17.616C42.0785 17.616 42.3319 17.5787 42.5239 17.504C42.7212 17.424 42.8865 17.3387 43.0199 17.248C43.1532 17.152 43.2679 17.0667 43.3639 16.992C43.4652 16.912 43.5772 16.872 43.6999 16.872C43.8599 16.872 43.9799 16.9333 44.0599 17.056L44.6279 17.776C44.4092 18.032 44.1719 18.248 43.9159 18.424C43.6599 18.5947 43.3932 18.7333 43.1159 18.84C42.8439 18.9413 42.5612 19.0133 42.2679 19.056C41.9799 19.0987 41.6919 19.12 41.4039 19.12C40.8972 19.12 40.4199 19.0267 39.9719 18.84C39.5239 18.648 39.1319 18.3707 38.7959 18.008C38.4599 17.6453 38.1932 17.2027 37.9959 16.68C37.8039 16.152 37.7079 15.552 37.7079 14.88C37.7079 14.2773 37.7932 13.72 37.9639 13.208C38.1399 12.6907 38.3959 12.2453 38.7319 11.872C39.0679 11.4933 39.4839 11.1973 39.9799 10.984C40.4759 10.7707 41.0465 10.664 41.6919 10.664C42.3052 10.664 42.8412 10.7627 43.2999 10.96C43.7639 11.1573 44.1799 11.44 44.5479 11.808L44.0279 12.528ZM49.358 10.664C49.966 10.664 50.518 10.7627 51.014 10.96C51.5153 11.1573 51.942 11.4373 52.294 11.8C52.6513 12.1627 52.926 12.6053 53.118 13.128C53.31 13.6507 53.406 14.2347 53.406 14.88C53.406 15.5307 53.31 16.1173 53.118 16.64C52.926 17.1627 52.6513 17.608 52.294 17.976C51.942 18.344 51.5153 18.6267 51.014 18.824C50.518 19.0213 49.966 19.12 49.358 19.12C48.7447 19.12 48.1873 19.0213 47.686 18.824C47.1847 18.6267 46.7553 18.344 46.398 17.976C46.046 17.608 45.7713 17.1627 45.574 16.64C45.382 16.1173 45.286 15.5307 45.286 14.88C45.286 14.2347 45.382 13.6507 45.574 13.128C45.7713 12.6053 46.046 12.1627 46.398 11.8C46.7553 11.4373 47.1847 11.1573 47.686 10.96C48.1873 10.7627 48.7447 10.664 49.358 10.664ZM49.358 17.6C50.0407 17.6 50.5447 17.3707 50.87 16.912C51.2007 16.4533 51.366 15.7813 51.366 14.896C51.366 14.0107 51.2007 13.336 50.87 12.872C50.5447 12.408 50.0407 12.176 49.358 12.176C48.6647 12.176 48.15 12.4107 47.814 12.88C47.4833 13.344 47.318 14.016 47.318 14.896C47.318 15.776 47.4833 16.448 47.814 16.912C48.15 17.3707 48.6647 17.6 49.358 17.6ZM61.9855 10.792V19H60.7775C60.5162 19 60.3508 18.88 60.2815 18.64L60.1455 17.984C59.8095 18.3253 59.4388 18.6027 59.0335 18.816C58.6282 19.024 58.1508 19.128 57.6015 19.128C57.1535 19.128 56.7562 19.0533 56.4095 18.904C56.0682 18.7493 55.7802 18.5333 55.5455 18.256C55.3108 17.9787 55.1322 17.6507 55.0095 17.272C54.8922 16.888 54.8335 16.4667 54.8335 16.008V10.792H56.8095V16.008C56.8095 16.5093 56.9242 16.8987 57.1535 17.176C57.3882 17.448 57.7375 17.584 58.2015 17.584C58.5428 17.584 58.8628 17.5093 59.1615 17.36C59.4602 17.2053 59.7428 16.9947 60.0095 16.728V10.792H61.9855ZM65.8088 12.216C66.0648 11.7253 66.3688 11.3413 66.7208 11.064C67.0728 10.7813 67.4888 10.64 67.9688 10.64C68.3474 10.64 68.6514 10.7227 68.8808 10.888L68.7528 12.368C68.7261 12.464 68.6861 12.5333 68.6328 12.576C68.5848 12.6133 68.5181 12.632 68.4328 12.632C68.3528 12.632 68.2328 12.6187 68.0728 12.592C67.9181 12.5653 67.7661 12.552 67.6168 12.552C67.3981 12.552 67.2034 12.584 67.0328 12.648C66.8621 12.712 66.7074 12.8053 66.5688 12.928C66.4354 13.0453 66.3154 13.1893 66.2088 13.36C66.1074 13.5307 66.0114 13.7253 65.9208 13.944V19H63.9448V10.792H65.1048C65.3074 10.792 65.4488 10.8293 65.5288 10.904C65.6088 10.9733 65.6621 11.1013 65.6888 11.288L65.8088 12.216ZM74.8903 12.392C74.8369 12.4773 74.7809 12.5387 74.7223 12.576C74.6636 12.608 74.5889 12.624 74.4983 12.624C74.4023 12.624 74.2983 12.5973 74.1863 12.544C74.0796 12.4907 73.9543 12.432 73.8103 12.368C73.6663 12.2987 73.5009 12.2373 73.3142 12.184C73.1329 12.1307 72.9169 12.104 72.6663 12.104C72.2769 12.104 71.9703 12.1867 71.7463 12.352C71.5276 12.5173 71.4183 12.7333 71.4183 13C71.4183 13.176 71.4743 13.3253 71.5863 13.448C71.7036 13.5653 71.8556 13.6693 72.0423 13.76C72.2343 13.8507 72.4503 13.9333 72.6903 14.008C72.9303 14.0773 73.1729 14.1547 73.4183 14.24C73.6689 14.3253 73.9143 14.424 74.1543 14.536C74.3943 14.6427 74.6076 14.7813 74.7943 14.952C74.9863 15.1173 75.1383 15.3173 75.2503 15.552C75.3676 15.7867 75.4263 16.0693 75.4263 16.4C75.4263 16.7947 75.3543 17.16 75.2103 17.496C75.0716 17.8267 74.8636 18.1147 74.5863 18.36C74.3089 18.6 73.9649 18.7893 73.5543 18.928C73.1489 19.0613 72.6796 19.128 72.1463 19.128C71.8636 19.128 71.5863 19.1013 71.3143 19.048C71.0476 19 70.7889 18.9307 70.5383 18.84C70.2929 18.7493 70.0636 18.6427 69.8503 18.52C69.6423 18.3973 69.4583 18.264 69.2983 18.12L69.7543 17.368C69.8129 17.2773 69.8823 17.208 69.9622 17.16C70.0422 17.112 70.1436 17.088 70.2663 17.088C70.3889 17.088 70.5036 17.1227 70.6103 17.192C70.7223 17.2613 70.8503 17.336 70.9943 17.416C71.1383 17.496 71.3063 17.5707 71.4983 17.64C71.6956 17.7093 71.9436 17.744 72.2423 17.744C72.4769 17.744 72.6769 17.7173 72.8423 17.664C73.0129 17.6053 73.1516 17.5307 73.2583 17.44C73.3703 17.3493 73.4502 17.2453 73.4983 17.128C73.5516 17.0053 73.5783 16.88 73.5783 16.752C73.5783 16.56 73.5196 16.4027 73.4023 16.28C73.2903 16.1573 73.1383 16.0507 72.9462 15.96C72.7596 15.8693 72.5436 15.7893 72.2983 15.72C72.0583 15.6453 71.8103 15.5653 71.5543 15.48C71.3036 15.3947 71.0556 15.296 70.8103 15.184C70.5703 15.0667 70.3543 14.92 70.1623 14.744C69.9756 14.568 69.8236 14.352 69.7063 14.096C69.5943 13.84 69.5383 13.5307 69.5383 13.168C69.5383 12.832 69.6049 12.512 69.7383 12.208C69.8716 11.904 70.0663 11.64 70.3223 11.416C70.5836 11.1867 70.9063 11.0053 71.2903 10.872C71.6796 10.7333 72.1276 10.664 72.6343 10.664C73.1996 10.664 73.7143 10.7573 74.1783 10.944C74.6423 11.1307 75.0289 11.376 75.3383 11.68L74.8903 12.392ZM82.2015 13.952C82.2015 13.696 82.1642 13.456 82.0895 13.232C82.0202 13.0027 81.9135 12.8027 81.7695 12.632C81.6255 12.4613 81.4415 12.328 81.2175 12.232C80.9988 12.1307 80.7428 12.08 80.4495 12.08C79.8788 12.08 79.4282 12.2427 79.0975 12.568C78.7722 12.8933 78.5642 13.3547 78.4735 13.952H82.2015ZM78.4335 15.144C78.4655 15.5653 78.5402 15.9307 78.6575 16.24C78.7748 16.544 78.9295 16.7973 79.1215 17C79.3135 17.1973 79.5402 17.3467 79.8015 17.448C80.0682 17.544 80.3615 17.592 80.6815 17.592C81.0015 17.592 81.2762 17.5547 81.5055 17.48C81.7402 17.4053 81.9428 17.3227 82.1135 17.232C82.2895 17.1413 82.4415 17.0587 82.5695 16.984C82.7028 16.9093 82.8308 16.872 82.9535 16.872C83.1188 16.872 83.2415 16.9333 83.3215 17.056L83.8895 17.776C83.6708 18.032 83.4255 18.248 83.1535 18.424C82.8815 18.5947 82.5962 18.7333 82.2975 18.84C82.0042 18.9413 81.7028 19.0133 81.3935 19.056C81.0895 19.0987 80.7935 19.12 80.5055 19.12C79.9348 19.12 79.4042 19.0267 78.9135 18.84C78.4228 18.648 77.9962 18.368 77.6335 18C77.2708 17.6267 76.9855 17.168 76.7775 16.624C76.5695 16.0747 76.4655 15.44 76.4655 14.72C76.4655 14.16 76.5562 13.6347 76.7375 13.144C76.9188 12.648 77.1775 12.2187 77.5135 11.856C77.8548 11.488 78.2682 11.1973 78.7535 10.984C79.2442 10.7707 79.7962 10.664 80.4095 10.664C80.9268 10.664 81.4042 10.7467 81.8415 10.912C82.2788 11.0773 82.6548 11.32 82.9695 11.64C83.2842 11.9547 83.5295 12.344 83.7055 12.808C83.8868 13.2667 83.9775 13.792 83.9775 14.384C83.9775 14.6827 83.9455 14.8853 83.8815 14.992C83.8175 15.0933 83.6948 15.144 83.5135 15.144H78.4335ZM90.4684 12.392C90.415 12.4773 90.359 12.5387 90.3004 12.576C90.2417 12.608 90.167 12.624 90.0764 12.624C89.9804 12.624 89.8764 12.5973 89.7644 12.544C89.6577 12.4907 89.5324 12.432 89.3884 12.368C89.2444 12.2987 89.079 12.2373 88.8924 12.184C88.711 12.1307 88.495 12.104 88.2444 12.104C87.855 12.104 87.5484 12.1867 87.3244 12.352C87.1057 12.5173 86.9964 12.7333 86.9964 13C86.9964 13.176 87.0524 13.3253 87.1644 13.448C87.2817 13.5653 87.4337 13.6693 87.6204 13.76C87.8124 13.8507 88.0284 13.9333 88.2684 14.008C88.5084 14.0773 88.751 14.1547 88.9964 14.24C89.247 14.3253 89.4924 14.424 89.7324 14.536C89.9724 14.6427 90.1857 14.7813 90.3724 14.952C90.5644 15.1173 90.7164 15.3173 90.8284 15.552C90.9457 15.7867 91.0044 16.0693 91.0044 16.4C91.0044 16.7947 90.9324 17.16 90.7884 17.496C90.6497 17.8267 90.4417 18.1147 90.1644 18.36C89.887 18.6 89.543 18.7893 89.1324 18.928C88.727 19.0613 88.2577 19.128 87.7244 19.128C87.4417 19.128 87.1644 19.1013 86.8924 19.048C86.6257 19 86.367 18.9307 86.1164 18.84C85.871 18.7493 85.6417 18.6427 85.4284 18.52C85.2204 18.3973 85.0364 18.264 84.8764 18.12L85.3324 17.368C85.391 17.2773 85.4604 17.208 85.5404 17.16C85.6204 17.112 85.7217 17.088 85.8444 17.088C85.967 17.088 86.0817 17.1227 86.1884 17.192C86.3004 17.2613 86.4284 17.336 86.5724 17.416C86.7164 17.496 86.8844 17.5707 87.0764 17.64C87.2737 17.7093 87.5217 17.744 87.8204 17.744C88.055 17.744 88.255 17.7173 88.4204 17.664C88.591 17.6053 88.7297 17.5307 88.8364 17.44C88.9484 17.3493 89.0284 17.2453 89.0764 17.128C89.1297 17.0053 89.1564 16.88 89.1564 16.752C89.1564 16.56 89.0977 16.4027 88.9804 16.28C88.8684 16.1573 88.7164 16.0507 88.5244 15.96C88.3377 15.8693 88.1217 15.7893 87.8764 15.72C87.6364 15.6453 87.3884 15.5653 87.1324 15.48C86.8817 15.3947 86.6337 15.296 86.3884 15.184C86.1484 15.0667 85.9324 14.92 85.7404 14.744C85.5537 14.568 85.4017 14.352 85.2844 14.096C85.1724 13.84 85.1164 13.5307 85.1164 13.168C85.1164 12.832 85.183 12.512 85.3164 12.208C85.4497 11.904 85.6444 11.64 85.9004 11.416C86.1617 11.1867 86.4844 11.0053 86.8684 10.872C87.2577 10.7333 87.7057 10.664 88.2124 10.664C88.7777 10.664 89.2924 10.7573 89.7564 10.944C90.2204 11.1307 90.607 11.376 90.9164 11.68L90.4684 12.392Z" fill="#424551"/>
</g>
<defs>
<clipPath id="clip0_2299_4085">
<rect width="92" height="26" fill="white"/>
</clipPath>
<clipPath id="clip1_2299_4085">
<rect width="16" height="16" fill="white" transform="translate(0 5)"/>
</clipPath>
</defs>
</svg>
