<svg width="79" height="26" viewBox="0 0 79 26" fill="none" xmlns="http://www.w3.org/2000/svg">
<g clip-path="url(#clip0_2299_4081)">
<path fill-rule="evenodd" clip-rule="evenodd" d="M6.77956 6.46807C7.24272 5.39997 8.75744 5.39997 9.2206 6.46807L10.6217 9.69907L14.1275 10.0331C15.2864 10.1436 15.7545 11.5841 14.8818 12.3547L12.2419 14.6856L13.0076 18.1231C13.2607 19.2595 12.0352 20.1498 11.0327 19.5579L8.00008 17.7675L4.96745 19.5579C3.96493 20.1498 2.7395 19.2595 2.99261 18.1231L3.75825 14.6856L1.11834 12.3547C0.245643 11.5841 0.713714 10.1436 1.87266 10.0331L5.37849 9.69907L6.77956 6.46807ZM9.40116 10.2283L8.00008 6.99733L6.59901 10.2283C6.40624 10.6729 5.98703 10.9774 5.50468 11.0234L1.99886 11.3575L4.63877 13.6884C5.00198 14.0091 5.1621 14.5019 5.05676 14.9749L4.29112 18.4123L7.32375 16.6219C7.74099 16.3756 8.25917 16.3756 8.67641 16.6219L11.709 18.4123L10.9434 14.9749C10.8381 14.5019 10.9982 14.0091 11.3614 13.6884L14.0013 11.3575L10.4955 11.0234C10.0131 10.9774 9.59392 10.6729 9.40116 10.2283Z" fill="#FF3F3A"/>
<path d="M29.696 14.64V10.856C29.696 10.4987 29.72 10.104 29.768 9.672L26.176 14.64H29.696ZM32.872 14.64V15.784C32.872 15.8907 32.8373 15.984 32.768 16.064C32.6987 16.1387 32.6 16.176 32.472 16.176H31.416V19H29.696V16.176H24.816C24.6827 16.176 24.5653 16.136 24.464 16.056C24.3627 15.9707 24.2987 15.8667 24.272 15.744L24.064 14.744L29.544 7.424H31.416V14.64H32.872ZM33.9693 17.912C33.9693 17.7467 33.9986 17.5893 34.0573 17.44C34.1213 17.2907 34.2066 17.1627 34.3133 17.056C34.4199 16.9493 34.5479 16.864 34.6973 16.8C34.8466 16.736 35.0066 16.704 35.1773 16.704C35.3479 16.704 35.5053 16.736 35.6493 16.8C35.7986 16.864 35.9266 16.9493 36.0333 17.056C36.1453 17.1627 36.2333 17.2907 36.2973 17.44C36.3613 17.5893 36.3933 17.7467 36.3933 17.912C36.3933 18.0827 36.3613 18.2427 36.2973 18.392C36.2333 18.536 36.1453 18.6613 36.0333 18.768C35.9266 18.8747 35.7986 18.9573 35.6493 19.016C35.5053 19.08 35.3479 19.112 35.1773 19.112C35.0066 19.112 34.8466 19.08 34.6973 19.016C34.5479 18.9573 34.4199 18.8747 34.3133 18.768C34.2066 18.6613 34.1213 18.536 34.0573 18.392C33.9986 18.2427 33.9693 18.0827 33.9693 17.912ZM39.7181 10.904C39.7181 11.5493 39.8835 12.0427 40.2141 12.384C40.5501 12.72 41.0248 12.888 41.6381 12.888C41.9581 12.888 42.2435 12.8373 42.4941 12.736C42.7448 12.6347 42.9555 12.496 43.1261 12.32C43.2968 12.144 43.4248 11.936 43.5101 11.696C43.6008 11.456 43.6461 11.1973 43.6461 10.92C43.6461 10.6053 43.5981 10.3253 43.5021 10.08C43.4061 9.82933 43.2701 9.61867 43.0941 9.448C42.9181 9.27733 42.7075 9.14667 42.4621 9.056C42.2221 8.96533 41.9581 8.92 41.6701 8.92C41.3715 8.92 41.1021 8.97067 40.8621 9.072C40.6221 9.168 40.4168 9.304 40.2461 9.48C40.0755 9.656 39.9448 9.86667 39.8541 10.112C39.7635 10.352 39.7181 10.616 39.7181 10.904ZM42.3421 14.512C42.4328 14.4 42.5181 14.2907 42.5981 14.184C42.6781 14.0773 42.7555 13.9707 42.8301 13.864C42.5635 14.0347 42.2701 14.1653 41.9501 14.256C41.6301 14.3413 41.2941 14.384 40.9421 14.384C40.5421 14.384 40.1501 14.3147 39.7661 14.176C39.3821 14.0373 39.0408 13.8293 38.7421 13.552C38.4435 13.2693 38.2008 12.9227 38.0141 12.512C37.8328 12.096 37.7421 11.6107 37.7421 11.056C37.7421 10.5387 37.8381 10.0533 38.0301 9.6C38.2221 9.14667 38.4915 8.74933 38.8381 8.408C39.1848 8.06667 39.6008 7.79733 40.0861 7.6C40.5715 7.40267 41.1075 7.304 41.6941 7.304C42.2861 7.304 42.8168 7.39733 43.2861 7.584C43.7608 7.77067 44.1635 8.032 44.4941 8.368C44.8301 8.704 45.0861 9.10667 45.2621 9.576C45.4435 10.0453 45.5341 10.56 45.5341 11.12C45.5341 11.4773 45.5021 11.816 45.4381 12.136C45.3795 12.456 45.2941 12.7653 45.1821 13.064C45.0701 13.3573 44.9341 13.6453 44.7741 13.928C44.6141 14.2107 44.4355 14.4907 44.2381 14.768L41.5901 18.544C41.4995 18.672 41.3635 18.7813 41.1821 18.872C41.0008 18.9573 40.7955 19 40.5661 19H38.7501L42.3421 14.512ZM53.09 12.216C53.346 11.7253 53.65 11.3413 54.002 11.064C54.354 10.7813 54.77 10.64 55.25 10.64C55.6287 10.64 55.9327 10.7227 56.162 10.888L56.034 12.368C56.0073 12.464 55.9673 12.5333 55.914 12.576C55.866 12.6133 55.7993 12.632 55.714 12.632C55.634 12.632 55.514 12.6187 55.354 12.592C55.1993 12.5653 55.0473 12.552 54.898 12.552C54.6793 12.552 54.4847 12.584 54.314 12.648C54.1433 12.712 53.9887 12.8053 53.85 12.928C53.7167 13.0453 53.5967 13.1893 53.49 13.36C53.3887 13.5307 53.2927 13.7253 53.202 13.944V19H51.226V10.792H52.386C52.5887 10.792 52.73 10.8293 52.81 10.904C52.89 10.9733 52.9433 11.1013 52.97 11.288L53.09 12.216ZM61.4214 15.496C60.8507 15.5227 60.3707 15.5733 59.9814 15.648C59.592 15.7173 59.28 15.808 59.0454 15.92C58.8107 16.032 58.6427 16.1627 58.5414 16.312C58.44 16.4613 58.3894 16.624 58.3894 16.8C58.3894 17.1467 58.4907 17.3947 58.6934 17.544C58.9014 17.6933 59.1707 17.768 59.5014 17.768C59.9067 17.768 60.256 17.696 60.5494 17.552C60.848 17.4027 61.1387 17.1787 61.4214 16.88V15.496ZM56.8934 11.936C57.8374 11.072 58.9734 10.64 60.3014 10.64C60.7814 10.64 61.2107 10.72 61.5894 10.88C61.968 11.0347 62.288 11.2533 62.5494 11.536C62.8107 11.8133 63.008 12.1467 63.1414 12.536C63.28 12.9253 63.3494 13.352 63.3494 13.816V19H62.4534C62.2667 19 62.1227 18.9733 62.0214 18.92C61.92 18.8613 61.84 18.7467 61.7814 18.576L61.6054 17.984C61.3974 18.1707 61.1947 18.336 60.9974 18.48C60.8 18.6187 60.5947 18.736 60.3814 18.832C60.168 18.928 59.9387 19 59.6934 19.048C59.4534 19.1013 59.1867 19.128 58.8934 19.128C58.5467 19.128 58.2267 19.0827 57.9334 18.992C57.64 18.896 57.3867 18.7547 57.1734 18.568C56.96 18.3813 56.7947 18.1493 56.6774 17.872C56.56 17.5947 56.5014 17.272 56.5014 16.904C56.5014 16.696 56.536 16.4907 56.6054 16.288C56.6747 16.08 56.7867 15.8827 56.9414 15.696C57.1014 15.5093 57.3067 15.3333 57.5574 15.168C57.808 15.0027 58.1147 14.8587 58.4774 14.736C58.8454 14.6133 59.272 14.5147 59.7574 14.44C60.2427 14.36 60.7974 14.312 61.4214 14.296V13.816C61.4214 13.2667 61.304 12.8613 61.0694 12.6C60.8347 12.3333 60.496 12.2 60.0534 12.2C59.7334 12.2 59.4667 12.2373 59.2534 12.312C59.0454 12.3867 58.8614 12.472 58.7014 12.568C58.5414 12.6587 58.3947 12.7413 58.2614 12.816C58.1334 12.8907 57.9894 12.928 57.8294 12.928C57.6907 12.928 57.5734 12.8933 57.4774 12.824C57.3814 12.7493 57.304 12.664 57.2454 12.568L56.8934 11.936ZM67.837 19.128C67.1223 19.128 66.573 18.928 66.189 18.528C65.8103 18.1227 65.621 17.5653 65.621 16.856V12.272H64.781C64.6743 12.272 64.5837 12.2373 64.509 12.168C64.4343 12.0987 64.397 11.9947 64.397 11.856V11.072L65.717 10.856L66.133 8.616C66.1597 8.50933 66.2103 8.42667 66.285 8.368C66.3597 8.30933 66.4557 8.28 66.573 8.28H67.597V10.864H69.789V12.272H67.597V16.72C67.597 16.976 67.6583 17.176 67.781 17.32C67.909 17.464 68.0823 17.536 68.301 17.536C68.4237 17.536 68.525 17.5227 68.605 17.496C68.6903 17.464 68.7623 17.432 68.821 17.4C68.885 17.368 68.941 17.3387 68.989 17.312C69.037 17.28 69.085 17.264 69.133 17.264C69.1917 17.264 69.2397 17.28 69.277 17.312C69.3143 17.3387 69.3543 17.3813 69.397 17.44L69.989 18.4C69.701 18.64 69.3703 18.8213 68.997 18.944C68.6237 19.0667 68.237 19.128 67.837 19.128ZM76.2796 13.952C76.2796 13.696 76.2423 13.456 76.1676 13.232C76.0983 13.0027 75.9916 12.8027 75.8476 12.632C75.7036 12.4613 75.5196 12.328 75.2956 12.232C75.077 12.1307 74.821 12.08 74.5276 12.08C73.957 12.08 73.5063 12.2427 73.1756 12.568C72.8503 12.8933 72.6423 13.3547 72.5516 13.952H76.2796ZM72.5116 15.144C72.5436 15.5653 72.6183 15.9307 72.7356 16.24C72.853 16.544 73.0076 16.7973 73.1996 17C73.3916 17.1973 73.6183 17.3467 73.8796 17.448C74.1463 17.544 74.4396 17.592 74.7596 17.592C75.0796 17.592 75.3543 17.5547 75.5836 17.48C75.8183 17.4053 76.021 17.3227 76.1916 17.232C76.3676 17.1413 76.5196 17.0587 76.6476 16.984C76.781 16.9093 76.909 16.872 77.0316 16.872C77.197 16.872 77.3196 16.9333 77.3996 17.056L77.9676 17.776C77.749 18.032 77.5036 18.248 77.2316 18.424C76.9596 18.5947 76.6743 18.7333 76.3756 18.84C76.0823 18.9413 75.781 19.0133 75.4716 19.056C75.1676 19.0987 74.8716 19.12 74.5836 19.12C74.013 19.12 73.4823 19.0267 72.9916 18.84C72.501 18.648 72.0743 18.368 71.7116 18C71.349 17.6267 71.0636 17.168 70.8556 16.624C70.6476 16.0747 70.5436 15.44 70.5436 14.72C70.5436 14.16 70.6343 13.6347 70.8156 13.144C70.997 12.648 71.2556 12.2187 71.5916 11.856C71.933 11.488 72.3463 11.1973 72.8316 10.984C73.3223 10.7707 73.8743 10.664 74.4876 10.664C75.005 10.664 75.4823 10.7467 75.9196 10.912C76.357 11.0773 76.733 11.32 77.0476 11.64C77.3623 11.9547 77.6076 12.344 77.7836 12.808C77.965 13.2667 78.0556 13.792 78.0556 14.384C78.0556 14.6827 78.0236 14.8853 77.9596 14.992C77.8956 15.0933 77.773 15.144 77.5916 15.144H72.5116Z" fill="#424551"/>
</g>
<defs>
<clipPath id="clip0_2299_4081">
<rect width="79" height="26" fill="white"/>
</clipPath>
</defs>
</svg>
