<svg width="118" height="26" viewBox="0 0 118 26" fill="none" xmlns="http://www.w3.org/2000/svg">
<g clip-path="url(#clip0_2299_4089)">
<path fill-rule="evenodd" clip-rule="evenodd" d="M8.00006 7.16634C6.71139 7.16634 5.66673 8.21101 5.66673 9.49967C5.66673 10.7883 6.71139 11.833 8.00006 11.833C9.28872 11.833 10.3334 10.7883 10.3334 9.49967C10.3334 8.21101 9.28872 7.16634 8.00006 7.16634ZM4.33339 9.49967C4.33339 7.47463 5.97501 5.83301 8.00006 5.83301C10.0251 5.83301 11.6667 7.47463 11.6667 9.49967C11.6667 11.5247 10.0251 13.1663 8.00006 13.1663C5.97501 13.1663 4.33339 11.5247 4.33339 9.49967Z" fill="#FF3F3A"/>
<path fill-rule="evenodd" clip-rule="evenodd" d="M4.06943 15.1663C3.60722 15.1663 3.24595 15.3914 3.0993 15.7148C2.89632 16.1623 2.71252 16.6951 2.66915 17.2005C2.64976 17.4264 2.74395 17.5928 2.87374 17.6735C3.55985 18.0997 5.14965 18.833 8.00006 18.833C10.8505 18.833 12.4403 18.0997 13.1264 17.6735C13.2562 17.5928 13.3504 17.4264 13.331 17.2005C13.2876 16.6951 13.1038 16.1623 12.9008 15.7148C12.7542 15.3914 12.3929 15.1663 11.9307 15.1663H4.06943ZM1.88501 15.164C2.29031 14.2704 3.19533 13.833 4.06943 13.833H11.9307C12.8048 13.833 13.7098 14.2704 14.1151 15.164C14.3479 15.6773 14.5977 16.3673 14.6594 17.0864C14.7156 17.7413 14.4435 18.4249 13.83 18.8061C12.9276 19.3666 11.0931 20.1663 8.00006 20.1663C4.90699 20.1663 3.07253 19.3666 2.17017 18.8061C1.55666 18.4249 1.2845 17.7413 1.3407 17.0864C1.40242 16.3673 1.65222 15.6773 1.88501 15.164Z" fill="#FF3F3A"/>
<path d="M24.864 10.656C24.944 10.1013 25.0987 9.616 25.328 9.2C25.5573 8.77867 25.8427 8.42933 26.184 8.152C26.5307 7.86933 26.9253 7.65867 27.368 7.52C27.816 7.376 28.296 7.304 28.808 7.304C29.3413 7.304 29.8213 7.38133 30.248 7.536C30.68 7.68533 31.048 7.896 31.352 8.168C31.656 8.43467 31.888 8.74933 32.048 9.112C32.2133 9.47467 32.296 9.86667 32.296 10.288C32.296 10.656 32.2533 10.9813 32.168 11.264C32.088 11.5413 31.9707 11.784 31.816 11.992C31.6613 12.2 31.4693 12.376 31.24 12.52C31.0107 12.664 30.752 12.784 30.464 12.88C31.1573 13.0987 31.6747 13.432 32.016 13.88C32.3573 14.328 32.528 14.8907 32.528 15.568C32.528 16.144 32.4213 16.6533 32.208 17.096C31.9947 17.5387 31.7067 17.912 31.344 18.216C30.9813 18.5147 30.56 18.7413 30.08 18.896C29.6053 19.0507 29.1013 19.128 28.568 19.128C27.9867 19.128 27.48 19.0613 27.048 18.928C26.616 18.7947 26.24 18.5973 25.92 18.336C25.6 18.0747 25.328 17.7547 25.104 17.376C24.88 16.9973 24.688 16.56 24.528 16.064L25.4 15.704C25.6293 15.608 25.8427 15.584 26.04 15.632C26.2427 15.6747 26.3893 15.7813 26.48 15.952C26.576 16.1387 26.68 16.3227 26.792 16.504C26.9093 16.6853 27.048 16.848 27.208 16.992C27.368 17.1307 27.5547 17.2453 27.768 17.336C27.9867 17.4213 28.2453 17.464 28.544 17.464C28.88 17.464 29.1733 17.4107 29.424 17.304C29.6747 17.192 29.8827 17.048 30.048 16.872C30.2187 16.696 30.344 16.5013 30.424 16.288C30.5093 16.0693 30.552 15.8507 30.552 15.632C30.552 15.3547 30.5227 15.104 30.464 14.88C30.4053 14.6507 30.2827 14.456 30.096 14.296C29.9093 14.136 29.64 14.0107 29.288 13.92C28.9413 13.8293 28.4747 13.784 27.888 13.784V12.376C28.3733 12.3707 28.776 12.3253 29.096 12.24C29.416 12.1547 29.6693 12.0373 29.856 11.888C30.048 11.7333 30.1813 11.5493 30.256 11.336C30.3307 11.1227 30.368 10.888 30.368 10.632C30.368 10.088 30.216 9.67467 29.912 9.392C29.608 9.10933 29.2027 8.968 28.696 8.968C28.4613 8.968 28.2453 9.00267 28.048 9.072C27.8507 9.136 27.672 9.22933 27.512 9.352C27.3573 9.46933 27.2267 9.608 27.12 9.768C27.0133 9.928 26.9333 10.104 26.88 10.296C26.7893 10.5413 26.6693 10.704 26.52 10.784C26.376 10.864 26.1707 10.8827 25.904 10.84L24.864 10.656ZM36.5293 11.632C36.7853 11.5787 37.0306 11.5413 37.2653 11.52C37.4999 11.4933 37.7266 11.48 37.9453 11.48C38.5533 11.48 39.0893 11.5707 39.5533 11.752C40.0173 11.9333 40.4066 12.184 40.7213 12.504C41.0359 12.824 41.2733 13.2 41.4333 13.632C41.5933 14.0587 41.6733 14.52 41.6733 15.016C41.6733 15.6293 41.5639 16.1893 41.3453 16.696C41.1319 17.2027 40.8333 17.6373 40.4493 18C40.0653 18.3573 39.6093 18.6347 39.0813 18.832C38.5586 19.0293 37.9879 19.128 37.3693 19.128C37.0066 19.128 36.6626 19.0907 36.3373 19.016C36.0119 18.9413 35.7053 18.8427 35.4173 18.72C35.1346 18.592 34.8706 18.448 34.6253 18.288C34.3853 18.1227 34.1693 17.9493 33.9773 17.768L34.5853 16.928C34.7133 16.7467 34.8813 16.656 35.0893 16.656C35.2226 16.656 35.3586 16.6987 35.4973 16.784C35.6359 16.8693 35.7933 16.9627 35.9693 17.064C36.1506 17.1653 36.3613 17.2587 36.6013 17.344C36.8466 17.4293 37.1399 17.472 37.4813 17.472C37.8439 17.472 38.1639 17.4133 38.4413 17.296C38.7186 17.1787 38.9479 17.016 39.1293 16.808C39.3159 16.5947 39.4546 16.344 39.5453 16.056C39.6413 15.7627 39.6893 15.4453 39.6893 15.104C39.6893 14.4747 39.5053 13.984 39.1373 13.632C38.7746 13.2747 38.2359 13.096 37.5213 13.096C36.9719 13.096 36.4093 13.1973 35.8333 13.4L34.6013 13.048L35.5613 7.432H41.2733V8.272C41.2733 8.55467 41.1853 8.784 41.0093 8.96C40.8333 9.136 40.5346 9.224 40.1133 9.224H36.9373L36.5293 11.632ZM51.4425 13.216C51.4425 14.224 51.3332 15.1013 51.1145 15.848C50.9012 16.5893 50.6025 17.2027 50.2185 17.688C49.8398 18.1733 49.3892 18.536 48.8665 18.776C48.3492 19.0107 47.7892 19.128 47.1865 19.128C46.5838 19.128 46.0238 19.0107 45.5065 18.776C44.9945 18.536 44.5492 18.1733 44.1705 17.688C43.7918 17.2027 43.4958 16.5893 43.2825 15.848C43.0692 15.1013 42.9625 14.224 42.9625 13.216C42.9625 12.2027 43.0692 11.3253 43.2825 10.584C43.4958 9.84267 43.7918 9.22933 44.1705 8.744C44.5492 8.25867 44.9945 7.89867 45.5065 7.664C46.0238 7.424 46.5838 7.304 47.1865 7.304C47.7892 7.304 48.3492 7.424 48.8665 7.664C49.3892 7.89867 49.8398 8.25867 50.2185 8.744C50.6025 9.22933 50.9012 9.84267 51.1145 10.584C51.3332 11.3253 51.4425 12.2027 51.4425 13.216ZM49.4025 13.216C49.4025 12.3787 49.3412 11.6853 49.2185 11.136C49.0958 10.5867 48.9305 10.1493 48.7225 9.824C48.5198 9.49867 48.2852 9.272 48.0185 9.144C47.7518 9.01067 47.4745 8.944 47.1865 8.944C46.9038 8.944 46.6292 9.01067 46.3625 9.144C46.1012 9.272 45.8692 9.49867 45.6665 9.824C45.4638 10.1493 45.3012 10.5867 45.1785 11.136C45.0612 11.6853 45.0025 12.3787 45.0025 13.216C45.0025 14.0533 45.0612 14.7467 45.1785 15.296C45.3012 15.8453 45.4638 16.2827 45.6665 16.608C45.8692 16.9333 46.1012 17.1627 46.3625 17.296C46.6292 17.424 46.9038 17.488 47.1865 17.488C47.4745 17.488 47.7518 17.424 48.0185 17.296C48.2852 17.1627 48.5198 16.9333 48.7225 16.608C48.9305 16.2827 49.0958 15.8453 49.2185 15.296C49.3412 14.7467 49.4025 14.0533 49.4025 13.216ZM61.7184 12.392C61.665 12.4773 61.609 12.5387 61.5504 12.576C61.4917 12.608 61.417 12.624 61.3264 12.624C61.2304 12.624 61.1264 12.5973 61.0144 12.544C60.9077 12.4907 60.7824 12.432 60.6384 12.368C60.4944 12.2987 60.329 12.2373 60.1424 12.184C59.961 12.1307 59.745 12.104 59.4944 12.104C59.105 12.104 58.7984 12.1867 58.5744 12.352C58.3557 12.5173 58.2464 12.7333 58.2464 13C58.2464 13.176 58.3024 13.3253 58.4144 13.448C58.5317 13.5653 58.6837 13.6693 58.8704 13.76C59.0624 13.8507 59.2784 13.9333 59.5184 14.008C59.7584 14.0773 60.001 14.1547 60.2464 14.24C60.497 14.3253 60.7424 14.424 60.9824 14.536C61.2224 14.6427 61.4357 14.7813 61.6224 14.952C61.8144 15.1173 61.9664 15.3173 62.0784 15.552C62.1957 15.7867 62.2544 16.0693 62.2544 16.4C62.2544 16.7947 62.1824 17.16 62.0384 17.496C61.8997 17.8267 61.6917 18.1147 61.4144 18.36C61.137 18.6 60.793 18.7893 60.3824 18.928C59.977 19.0613 59.5077 19.128 58.9744 19.128C58.6917 19.128 58.4144 19.1013 58.1424 19.048C57.8757 19 57.617 18.9307 57.3664 18.84C57.121 18.7493 56.8917 18.6427 56.6784 18.52C56.4704 18.3973 56.2864 18.264 56.1264 18.12L56.5824 17.368C56.641 17.2773 56.7104 17.208 56.7904 17.16C56.8704 17.112 56.9717 17.088 57.0944 17.088C57.217 17.088 57.3317 17.1227 57.4384 17.192C57.5504 17.2613 57.6784 17.336 57.8224 17.416C57.9664 17.496 58.1344 17.5707 58.3264 17.64C58.5237 17.7093 58.7717 17.744 59.0704 17.744C59.305 17.744 59.505 17.7173 59.6704 17.664C59.841 17.6053 59.9797 17.5307 60.0864 17.44C60.1984 17.3493 60.2784 17.2453 60.3264 17.128C60.3797 17.0053 60.4064 16.88 60.4064 16.752C60.4064 16.56 60.3477 16.4027 60.2304 16.28C60.1184 16.1573 59.9664 16.0507 59.7744 15.96C59.5877 15.8693 59.3717 15.7893 59.1264 15.72C58.8864 15.6453 58.6384 15.5653 58.3824 15.48C58.1317 15.3947 57.8837 15.296 57.6384 15.184C57.3984 15.0667 57.1824 14.92 56.9904 14.744C56.8037 14.568 56.6517 14.352 56.5344 14.096C56.4224 13.84 56.3664 13.5307 56.3664 13.168C56.3664 12.832 56.433 12.512 56.5664 12.208C56.6997 11.904 56.8944 11.64 57.1504 11.416C57.4117 11.1867 57.7344 11.0053 58.1184 10.872C58.5077 10.7333 58.9557 10.664 59.4624 10.664C60.0277 10.664 60.5424 10.7573 61.0064 10.944C61.4704 11.1307 61.857 11.376 62.1664 11.68L61.7184 12.392ZM66.4776 19.128C65.763 19.128 65.2136 18.928 64.8296 18.528C64.451 18.1227 64.2616 17.5653 64.2616 16.856V12.272H63.4216C63.315 12.272 63.2243 12.2373 63.1496 12.168C63.075 12.0987 63.0376 11.9947 63.0376 11.856V11.072L64.3576 10.856L64.7736 8.616C64.8003 8.50933 64.851 8.42667 64.9256 8.368C65.0003 8.30933 65.0963 8.28 65.2136 8.28H66.2376V10.864H68.4296V12.272H66.2376V16.72C66.2376 16.976 66.299 17.176 66.4216 17.32C66.5496 17.464 66.723 17.536 66.9416 17.536C67.0643 17.536 67.1656 17.5227 67.2456 17.496C67.331 17.464 67.403 17.432 67.4616 17.4C67.5256 17.368 67.5816 17.3387 67.6296 17.312C67.6776 17.28 67.7256 17.264 67.7736 17.264C67.8323 17.264 67.8803 17.28 67.9176 17.312C67.955 17.3387 67.995 17.3813 68.0376 17.44L68.6296 18.4C68.3416 18.64 68.011 18.8213 67.6376 18.944C67.2643 19.0667 66.8776 19.128 66.4776 19.128ZM76.7668 10.792V19H75.5588C75.2974 19 75.1321 18.88 75.0628 18.64L74.9268 17.984C74.5908 18.3253 74.2201 18.6027 73.8148 18.816C73.4094 19.024 72.9321 19.128 72.3828 19.128C71.9348 19.128 71.5374 19.0533 71.1908 18.904C70.8494 18.7493 70.5614 18.5333 70.3268 18.256C70.0921 17.9787 69.9134 17.6507 69.7908 17.272C69.6734 16.888 69.6148 16.4667 69.6148 16.008V10.792H71.5908V16.008C71.5908 16.5093 71.7054 16.8987 71.9348 17.176C72.1694 17.448 72.5188 17.584 72.9828 17.584C73.3241 17.584 73.6441 17.5093 73.9428 17.36C74.2414 17.2053 74.5241 16.9947 74.7908 16.728V10.792H76.7668ZM83.878 12.888C83.654 12.616 83.4087 12.424 83.142 12.312C82.8807 12.2 82.598 12.144 82.294 12.144C81.9953 12.144 81.726 12.2 81.486 12.312C81.246 12.424 81.0407 12.5947 80.87 12.824C80.6993 13.048 80.5687 13.336 80.478 13.688C80.3873 14.0347 80.342 14.4453 80.342 14.92C80.342 15.4 80.3793 15.808 80.454 16.144C80.534 16.4747 80.646 16.7467 80.79 16.96C80.934 17.168 81.11 17.32 81.318 17.416C81.526 17.5067 81.758 17.552 82.014 17.552C82.4247 17.552 82.774 17.4667 83.062 17.296C83.35 17.1253 83.622 16.8827 83.878 16.568V12.888ZM85.854 7.112V19H84.646C84.3847 19 84.2193 18.88 84.15 18.64L83.982 17.848C83.6513 18.2267 83.27 18.5333 82.838 18.768C82.4113 19.0027 81.9127 19.12 81.342 19.12C80.894 19.12 80.4833 19.0267 80.11 18.84C79.7367 18.6533 79.414 18.384 79.142 18.032C78.8753 17.6747 78.6673 17.2347 78.518 16.712C78.374 16.1893 78.302 15.592 78.302 14.92C78.302 14.312 78.3847 13.7467 78.55 13.224C78.7153 12.7013 78.9527 12.248 79.262 11.864C79.5713 11.48 79.942 11.1813 80.374 10.968C80.806 10.7493 81.2913 10.64 81.83 10.64C82.2887 10.64 82.6807 10.712 83.006 10.856C83.3313 11 83.622 11.1947 83.878 11.44V7.112H85.854ZM93.0921 13.952C93.0921 13.696 93.0548 13.456 92.9801 13.232C92.9108 13.0027 92.8041 12.8027 92.6601 12.632C92.5161 12.4613 92.3321 12.328 92.1081 12.232C91.8895 12.1307 91.6335 12.08 91.3401 12.08C90.7695 12.08 90.3188 12.2427 89.9881 12.568C89.6628 12.8933 89.4548 13.3547 89.3641 13.952H93.0921ZM89.3241 15.144C89.3561 15.5653 89.4308 15.9307 89.5481 16.24C89.6655 16.544 89.8201 16.7973 90.0121 17C90.2041 17.1973 90.4308 17.3467 90.6921 17.448C90.9588 17.544 91.2521 17.592 91.5721 17.592C91.8921 17.592 92.1668 17.5547 92.3961 17.48C92.6308 17.4053 92.8335 17.3227 93.0041 17.232C93.1801 17.1413 93.3321 17.0587 93.4601 16.984C93.5935 16.9093 93.7215 16.872 93.8441 16.872C94.0095 16.872 94.1321 16.9333 94.2121 17.056L94.7801 17.776C94.5615 18.032 94.3161 18.248 94.0441 18.424C93.7721 18.5947 93.4868 18.7333 93.1881 18.84C92.8948 18.9413 92.5935 19.0133 92.2841 19.056C91.9801 19.0987 91.6841 19.12 91.3961 19.12C90.8255 19.12 90.2948 19.0267 89.8041 18.84C89.3135 18.648 88.8868 18.368 88.5241 18C88.1615 17.6267 87.8761 17.168 87.6681 16.624C87.4601 16.0747 87.3561 15.44 87.3561 14.72C87.3561 14.16 87.4468 13.6347 87.6281 13.144C87.8095 12.648 88.0681 12.2187 88.4041 11.856C88.7455 11.488 89.1588 11.1973 89.6441 10.984C90.1348 10.7707 90.6868 10.664 91.3001 10.664C91.8175 10.664 92.2948 10.7467 92.7321 10.912C93.1695 11.0773 93.5455 11.32 93.8601 11.64C94.1748 11.9547 94.4201 12.344 94.5961 12.808C94.7775 13.2667 94.8681 13.792 94.8681 14.384C94.8681 14.6827 94.8361 14.8853 94.7721 14.992C94.7081 15.0933 94.5855 15.144 94.4041 15.144H89.3241ZM98.199 11.8C98.3643 11.6347 98.5377 11.4827 98.719 11.344C98.9057 11.2 99.1003 11.08 99.303 10.984C99.511 10.8827 99.7323 10.8053 99.967 10.752C100.202 10.6933 100.458 10.664 100.735 10.664C101.183 10.664 101.58 10.7413 101.927 10.896C102.274 11.0453 102.562 11.2587 102.791 11.536C103.026 11.808 103.202 12.136 103.319 12.52C103.442 12.8987 103.503 13.3173 103.503 13.776V19H101.527V13.776C101.527 13.2747 101.412 12.888 101.183 12.616C100.954 12.3387 100.604 12.2 100.135 12.2C99.7937 12.2 99.4737 12.2773 99.175 12.432C98.8763 12.5867 98.5937 12.7973 98.327 13.064V19H96.351V10.792H97.559C97.815 10.792 97.983 10.912 98.063 11.152L98.199 11.8ZM108.009 19.128C107.294 19.128 106.745 18.928 106.361 18.528C105.982 18.1227 105.793 17.5653 105.793 16.856V12.272H104.953C104.846 12.272 104.756 12.2373 104.681 12.168C104.606 12.0987 104.569 11.9947 104.569 11.856V11.072L105.889 10.856L106.305 8.616C106.332 8.50933 106.382 8.42667 106.457 8.368C106.532 8.30933 106.628 8.28 106.745 8.28H107.769V10.864H109.961V12.272H107.769V16.72C107.769 16.976 107.83 17.176 107.953 17.32C108.081 17.464 108.254 17.536 108.473 17.536C108.596 17.536 108.697 17.5227 108.777 17.496C108.862 17.464 108.934 17.432 108.993 17.4C109.057 17.368 109.113 17.3387 109.161 17.312C109.209 17.28 109.257 17.264 109.305 17.264C109.364 17.264 109.412 17.28 109.449 17.312C109.486 17.3387 109.526 17.3813 109.569 17.44L110.161 18.4C109.873 18.64 109.542 18.8213 109.169 18.944C108.796 19.0667 108.409 19.128 108.009 19.128ZM116.234 12.392C116.181 12.4773 116.125 12.5387 116.066 12.576C116.007 12.608 115.933 12.624 115.842 12.624C115.746 12.624 115.642 12.5973 115.53 12.544C115.423 12.4907 115.298 12.432 115.154 12.368C115.01 12.2987 114.845 12.2373 114.658 12.184C114.477 12.1307 114.261 12.104 114.01 12.104C113.621 12.104 113.314 12.1867 113.09 12.352C112.871 12.5173 112.762 12.7333 112.762 13C112.762 13.176 112.818 13.3253 112.93 13.448C113.047 13.5653 113.199 13.6693 113.386 13.76C113.578 13.8507 113.794 13.9333 114.034 14.008C114.274 14.0773 114.517 14.1547 114.762 14.24C115.013 14.3253 115.258 14.424 115.498 14.536C115.738 14.6427 115.951 14.7813 116.138 14.952C116.33 15.1173 116.482 15.3173 116.594 15.552C116.711 15.7867 116.77 16.0693 116.77 16.4C116.77 16.7947 116.698 17.16 116.554 17.496C116.415 17.8267 116.207 18.1147 115.93 18.36C115.653 18.6 115.309 18.7893 114.898 18.928C114.493 19.0613 114.023 19.128 113.49 19.128C113.207 19.128 112.93 19.1013 112.658 19.048C112.391 19 112.133 18.9307 111.882 18.84C111.637 18.7493 111.407 18.6427 111.194 18.52C110.986 18.3973 110.802 18.264 110.642 18.12L111.098 17.368C111.157 17.2773 111.226 17.208 111.306 17.16C111.386 17.112 111.487 17.088 111.61 17.088C111.733 17.088 111.847 17.1227 111.954 17.192C112.066 17.2613 112.194 17.336 112.338 17.416C112.482 17.496 112.65 17.5707 112.842 17.64C113.039 17.7093 113.287 17.744 113.586 17.744C113.821 17.744 114.021 17.7173 114.186 17.664C114.357 17.6053 114.495 17.5307 114.602 17.44C114.714 17.3493 114.794 17.2453 114.842 17.128C114.895 17.0053 114.922 16.88 114.922 16.752C114.922 16.56 114.863 16.4027 114.746 16.28C114.634 16.1573 114.482 16.0507 114.29 15.96C114.103 15.8693 113.887 15.7893 113.642 15.72C113.402 15.6453 113.154 15.5653 112.898 15.48C112.647 15.3947 112.399 15.296 112.154 15.184C111.914 15.0667 111.698 14.92 111.506 14.744C111.319 14.568 111.167 14.352 111.05 14.096C110.938 13.84 110.882 13.5307 110.882 13.168C110.882 12.832 110.949 12.512 111.082 12.208C111.215 11.904 111.41 11.64 111.666 11.416C111.927 11.1867 112.25 11.0053 112.634 10.872C113.023 10.7333 113.471 10.664 113.978 10.664C114.543 10.664 115.058 10.7573 115.522 10.944C115.986 11.1307 116.373 11.376 116.682 11.68L116.234 12.392Z" fill="#424551"/>
</g>
<defs>
<clipPath id="clip0_2299_4089">
<rect width="118" height="26" fill="white"/>
</clipPath>
</defs>
</svg>
